<?xml version="1.0" encoding="utf-8"?>
<!-- Generator: Adobe Illustrator 21.1.0, SVG Export Plug-In . SVG Version: 6.00 Build 0)  -->
<svg version="1.1" id="图层_1" xmlns="http://www.w3.org/2000/svg" xmlns:xlink="http://www.w3.org/1999/xlink" x="0px" y="0px"
	 viewBox="0 0 688 152" style="enable-background:new 0 0 688 152;" xml:space="preserve">
<style type="text/css">
	.st0{fill:#DFB251;}
	.st1{fill:#BD7031;}
	.st2{fill:#B95F1B;}
	.st3{fill:#777370;}
	.st4{fill:#4B0B00;}
	.st5{fill:url(#SVGID_1_);}
	.st6{fill:#B06923;}
	.st7{fill:#652E09;}
	.st8{fill:url(#SVGID_2_);}
	.st9{fill:url(#SVGID_3_);}
	.st10{fill:url(#SVGID_4_);}
	.st11{fill:#303030;}
	.st12{fill:#FFFFFF;}
	.st13{fill:url(#SVGID_5_);}
	.st14{fill:url(#SVGID_6_);}
	.st15{fill:#777370;stroke:#777370;stroke-width:0.4994;stroke-miterlimit:10;}
	.st16{filter:url(#Adobe_OpacityMaskFilter);}
	.st17{mask:url(#mask-2_1_);fill:url(#Fill-10_1_);}
	.st18{filter:url(#Adobe_OpacityMaskFilter_1_);}
	.st19{mask:url(#mask-5_1_);fill:#B95F1B;}
	.st20{fill:#652E09;stroke:#652E09;stroke-width:0.5;}
	.st21{fill:#F0C56E;}
	.st22{fill:url(#SVGID_7_);}
	.st23{fill:#777370;stroke:#777370;stroke-width:0.4994;}
	.st24{fill:#EDF6FE;}
	.st25{fill:#DDECFC;}
	.st26{fill:#7990B0;}
	.st27{fill:url(#SVGID_8_);}
</style>
<g>
	<path class="st4" d="M114.3,25.5c0,0,5.5-5.4,14.8,1.9c9.3,7.3,24.7,18.8,46.6,53.8c10.3,16.5,16.8,32.8,11.9,45.7
		c-1.6,4.3-17.5,25.1-64.5,25.1c-38,0-50.9-15.9-52.2-30.6c0,0-6.5-44.5,24.4-79.3C101.1,35.5,105.4,31.3,114.3,25.5z"/>
	<path class="st4" d="M114.3,25.5c0,0-1.2-5,3.3-6.6c4.5-1.6,36.8-15.9,71.8,20.8c6.8,7.1,10.8,13.9,13.8,20.6
		c2.4,5.6,4.2,11.2,4.9,17.7c2.8,28-5,41.7-11.6,47.8c0,0-6,6.3-12.2-1C178.8,118.3,113.6,30.3,114.3,25.5z"/>
	<path class="st4" d="M183.3,34.2c0,0,12-13.6,25-13.6c5.7,0,12.1,5.9,11.6,16.9c0,0,0.8,4.2-6.7,0.5c-4.2-2-16.4-0.8-19.4,7.7
		L183.3,34.2z"/>
	<path class="st1" d="M116.6,24.7c0,0-1-2.4,1.6-3.7c1-0.5,5.3-2.2,9.5-2.9c5.6-0.9,7-1.2,17.6-0.6c0,0,20.6-0.5,46.1,28.3
		c0,0,0.8,0.7,2.6,3.5c4.7,7.1,13.6,23.5,11.8,43.3c0,0,0,9-4.3,19.8c-1.5,3.9-4.2,9-6.3,11.1c-1.7,1.7-3.8,3-5.8,1.3
		c0,0,2.8-7.4-1.3-18.6c-4.1-11.2-22.5-42.3-38.9-58.1C133.6,33.2,127.1,24.5,116.6,24.7z"/>
	<linearGradient id="SVGID_1_" gradientUnits="userSpaceOnUse" x1="87.2805" y1="60.6516" x2="146.0501" y2="132.2993">
		<stop  offset="0" style="stop-color:#FED586"/>
		<stop  offset="1" style="stop-color:#DEB04E"/>
	</linearGradient>
	<path class="st5" d="M110,30.3c0,0,6.5-5.9,12.2-2c3.4,2.3,10.2,7.5,18.8,16.2c5.9,5.9,12.6,13.7,19.7,22.6
		c17.3,21.8,22.8,37.9,24.6,44.8c1.8,6.9,0,13.1-4.9,16.4c-4.9,3.3-13.8,17.6-51.7,19.9c-37.9,2.2-53.3-15.5-55.2-23
		c0,0-7.7-30.6,13-67.9C86.6,57.2,96.4,39.5,110,30.3z"/>
	<path class="st6" d="M145.7,122.7c22.7-15.1,27.1-27.4,29.1-32.3c0.6-1.5,0.7-1.6,0.7-1.6c6.5,11.3,8.6,18.6,9.8,23.1
		c1.8,6.9,0.2,12.6-4.3,16.4c-3.5,3-14.5,17.6-52.3,19.9c-22,1.3-36.4-4.1-45-10.4c-0.6-0.4,0.5,0.4,0,0c0,0,10.7,3.1,27.8-0.4
		C122.8,135.1,138,127.8,145.7,122.7z"/>
	<path class="st1" d="M185.9,35.1l6.3,6.7c0,0,5.7-9.1,17.7-7.1c0,0,3.2,0.6,5.2,1.5c1.3,0.6,2.3,0.8,2.2-0.7
		c-0.1-1.5-1.8-9.7-6.9-12.1C205.3,20.9,192.3,27.4,185.9,35.1z"/>
	<path class="st7" d="M190.1,39.7L190.1,39.7c0-0.1,0.3-0.6,2.5-2.6c2.5-2.2,8.5-5.5,13.9-6c0.9-0.1,1.9-0.1,3-0.1
		c3.7,0,7,0.5,7,0.5l0.1,0l0,0.1c0.6,1.8,0.9,3.3,0.9,3.9c0,0.5,0,0.8-0.2,1c-0.1,0.2-0.3,0.2-0.6,0.2c-0.4,0-0.8-0.1-1.5-0.5
		c-2-0.9-5.1-1.5-5.2-1.5c-1.1-0.2-2.2-0.3-3.3-0.3c-9.6,0-14.3,7.3-14.3,7.4l-0.1,0.1L190.1,39.7z"/>
	<path class="st7" d="M192.7,37.2c-2.3,2-2.5,2.5-2.5,2.5l2,2.1c0,0,5.7-9.1,17.7-7.1c0,0,3.2,0.6,5.2,1.5c1.3,0.6,2.3,0.8,2.2-0.7
		c0-0.6-0.3-2.1-0.9-3.9c0,0-5.2-0.9-9.9-0.4C200.9,31.7,195,35.2,192.7,37.2z"/>
	<g>
		<path class="st2" d="M78.3,148.6H45.5c-12.1,0-23.6-4.7-32.2-13.3C4.7,126.7,0,115.2,0,103.1c0-19.8,12.8-37.3,31.4-43.3
			c0-0.1,0-0.2,0-0.4c0-17.1,13.9-31,30.9-31c1.2,0,2.4,0.1,3.6,0.2c2.9-7.8,8-14.8,14.7-19.8C88.3,3,97.4,0,107,0
			c8.8,0,17.2,2.6,24.5,7.5c1.4,0.9,1.7,2.8,0.8,4.2c-0.9,1.4-2.8,1.7-4.2,0.8C121.8,8.3,114.5,6,107,6c-8.3,0-16.1,2.6-22.7,7.6
			c-6.4,4.8-11.1,11.6-13.4,19.2c-0.5,1.5-2,2.4-3.5,2.1l0,0c-1.6-0.3-3.3-0.5-5-0.5c-13.7,0-24.9,11.2-24.9,24.9
			c0,0.7,0,1.5,0.1,2.2c0.2,1.4-0.7,2.8-2.2,3.3c0,0,0,0-0.1,0l0,0C18.1,69.5,6,85.2,6,103.1c0,10.6,4.1,20.5,11.6,27.9
			c7.4,7.5,17.4,11.6,27.9,11.6h32.8c1.7,0,3,1.4,3,3C81.3,147.3,80,148.6,78.3,148.6z"/>
	</g>
	<g>
		<polygon class="st7" points="189.3,43.5 189.3,43.5 189.3,43.5 		"/>
		<polygon class="st7" points="189.3,43.5 189.3,43.5 189.3,43.5 		"/>
		<path class="st7" d="M191.3,125.7c-0.7,0-1.4-0.3-2.1-0.8l-0.1,0l0-0.1c0-0.1,2.7-7.5-1.3-18.6c-1.5-4.2-4.9-10.9-9.4-18.5l0-0.1
			l3.8-3.2c6.4-7.6,7.1-12.5,8.2-21.4c1.2-9.2-0.6-15.9-1.2-18.4c-0.2-0.9-0.3-1.1-0.2-1.2l0,0l0.1,0c0.1,0,0.1,0,0.2,0.1
			c0.7,0.7,1.4,1.5,2.1,2.3c0,0,0.8,0.8,2.6,3.5c4.2,6.3,13.6,23,11.8,43.3c0,0.1-0.1,9.2-4.3,19.9c-1.6,4-4.2,9.1-6.3,11.2
			C193.7,125,192.5,125.7,191.3,125.7L191.3,125.7z"/>
		<path class="st7" d="M193.9,49.2c-1.8-2.7-2.6-3.5-2.6-3.5c-0.7-0.8-1.4-1.5-2-2.3c-1-1,3,6.8,1.3,19.5c-1.2,9-1.8,13.9-8.2,21.5
			l-3.7,3.2c4.5,7.7,7.9,14.4,9.4,18.5c4.1,11.2,1.3,18.6,1.3,18.6c2,1.7,4.1,0.4,5.8-1.3c2.1-2.1,4.8-7.3,6.3-11.1
			c4.2-10.8,4.3-19.8,4.3-19.8C207.5,72.8,198.7,56.4,193.9,49.2z"/>
	</g>
</g>
<g id="Page-1">
	<g id="Artboard" transform="translate(-530.000000, -256.000000)">
		<path id="NUTSTORE" class="st3" d="M777.9,371.6v-54c0-2.6,1.9-4.7,4.5-5l0,0c2.7-0.3,5.4,1,6.8,3.4l24.9,42.9
			c0.3,0.5,0.9,0.6,1.4,0.4c0.3-0.2,0.5-0.5,0.5-0.9v-41.3c0-2.2,1.8-4,4-4l0,0c2.2,0,4,1.8,4,4v54c0,2.9-2.2,5.2-5,5.5l0,0
			c-3,0.3-5.9-1.2-7.4-3.9l-22.7-42.1c-0.3-0.5-0.9-0.7-1.4-0.4c-0.3,0.2-0.5,0.5-0.5,0.9v40.5c0,2.5-2,4.5-4.5,4.5l0,0
			C779.9,376.1,777.9,374,777.9,371.6z M864.7,376.9c-13.9,0-23.3-7.6-23.3-28v-30.8c0-2.7,2.2-4.9,4.9-4.9l0,0
			c2.7,0,4.9,2.2,4.9,4.9v31.5c0,14.1,5.6,18.7,13.4,18.7c7.9,0,13.7-4.6,13.7-18.7V318c0-2.6,2.1-4.8,4.8-4.8l0,0
			c2.6,0,4.8,2.1,4.8,4.8v30.9C887.9,369.3,878.5,376.9,864.7,376.9z M918.2,370.9v-49.4h-14.2c-2.3,0-4.1-1.8-4.1-4.1l0,0
			c0-2.3,1.8-4.1,4.1-4.1h38.4c2.3,0,4.1,1.8,4.1,4.1l0,0c0,2.3-1.8,4.1-4.1,4.1H928v49.4c0,2.7-2.2,4.9-4.9,4.9l0,0
			C920.4,375.8,918.2,373.6,918.2,370.9z M973.2,376.9c-5.3,0-10.3-1.3-14.8-3.6c-1-0.5-2.1-1.2-3.3-2.1l0,0
			c-2.1-1.5-2.6-4.4-1.1-6.6c0,0,0,0,0,0l0,0c1.4-1.9,4.1-2.3,6-1c0,0,0,0,0.1,0.1c0.8,0.6,1.5,1.1,2.2,1.5c3.5,2,7.3,3.1,11.1,3.1
			c7.6,0,11.8-3.6,11.8-8.8c0-5.7-4.2-7.5-10-10l-8.7-3.7c-6-2.6-12.8-7.3-12.8-16.4c0-9.9,8.7-17.3,20.6-17.3
			c4.8,0,9.4,1.3,13.3,3.6c0.2,0.1,1.1,0.7,2.6,1.8v0c1.8,1.2,2.3,3.6,1.1,5.4l0,0c-1.1,1.8-3.5,2.5-5.4,1.5c-1.8-0.9-2.8-1.5-3-1.6
			c-2.6-1.3-5.4-2.1-8.7-2.1c-6.4,0-10.5,3.1-10.5,8.1c0,5.4,5,7.4,10.1,9.4l8.6,3.7c7.4,3.1,12.8,7.7,12.8,16.9
			C995.2,368.7,986.9,376.9,973.2,376.9z M1019.4,370.9v-49.4h-14.2c-2.3,0-4.1-1.8-4.1-4.1l0,0c0-2.3,1.8-4.1,4.1-4.1h38.4
			c2.3,0,4.1,1.8,4.1,4.1l0,0c0,2.3-1.8,4.1-4.1,4.1h-14.3v49.4c0,2.7-2.2,4.9-4.9,4.9l0,0C1021.6,375.8,1019.4,373.6,1019.4,370.9z
			 M1081.3,376.9c-16.1,0-27.2-12.5-27.2-32.6s11.1-32.2,27.2-32.2c16.1,0,27.3,12.1,27.3,32.2S1097.4,376.9,1081.3,376.9z
			 M1081.3,368.3c10.4,0,17.2-9.4,17.2-24.1s-6.8-23.6-17.2-23.6s-17.1,8.9-17.1,23.6S1070.9,368.3,1081.3,368.3z M1132.9,321.1
			v21.5h9.4c9.1,0,14-3.7,14-11.3c0-7.6-4.9-10.2-14-10.2H1132.9z M1162,375.2L1162,375.2c-2.3,1.1-5.1,0.2-6.3-2.1l-12.7-22.6
			h-10.1v20.3c0,2.7-2.2,4.9-4.9,4.9l0,0c-2.7,0-4.9-2.2-4.9-4.9v-55.6c0-1.1,0.9-2,2-2h18.5c12.9,0,22.6,4.6,22.6,18.1
			c0,9.7-5.2,15.5-13.1,17.9l11,20.1c1.1,2,0.4,4.6-1.7,5.7C1162.2,375.1,1162.1,375.1,1162,375.2z M1180.1,373.8v-58.6
			c0-1.1,0.9-2,2-2h30.9c2.3,0,4.1,1.8,4.1,4.1l0,0c0,2.3-1.8,4.1-4.1,4.1h-21c-1.1,0-2,0.9-2,2v13.4c0,1.1,0.9,2,2,2h16.8
			c2.3,0,4.2,1.9,4.2,4.2l0,0c0,2.3-1.9,4.2-4.2,4.2H1192c-1.1,0-2,0.9-2,2v16.2c0,1.1,0.9,2,2,2h21.9c2.3,0,4.2,1.9,4.2,4.2l0,0
			c0,2.3-1.9,4.2-4.2,4.2h-31.7C1181,375.8,1180.1,374.9,1180.1,373.8z"/>
	</g>
</g>
</svg>
